<svg xmlns="http://www.w3.org/2000/svg" viewBox="0 0 48 48" role="img" aria-label="段永平投资问答录">
  <rect width="48" height="48" rx="10" fill="#f8f5f0"/>
  <path d="M10 14.5c5.2-.9 9.9-.3 14 1.8 4.1-2.1 8.8-2.7 14-1.8v22.2c-5.2-.8-9.9-.2-14 1.9-4.1-2.1-8.8-2.7-14-1.9V14.5z" fill="#fffaf2" stroke="#2c2c2c" stroke-width="2" stroke-linejoin="round"/>
  <path d="M24 16.3v22.1" stroke="#2c2c2c" stroke-width="1.6" stroke-linecap="round"/>
  <path d="M14 30.5l5-5.1 4.3 3.4 10.7-11" fill="none" stroke="#b5462a" stroke-width="3" stroke-linecap="round" stroke-linejoin="round"/>
  <circle cx="34" cy="17.8" r="2.2" fill="#b5462a"/>
  <path d="M14.8 20.2c2.4-.2 4.5.1 6.4.8M14.8 24.1c1.7-.1 3.2.1 4.6.5M27.3 24.1c2-.5 4-.7 6.1-.5M27.3 28c1.8-.4 3.6-.6 5.5-.5" stroke="#777777" stroke-width="1.2" stroke-linecap="round" opacity=".65"/>
</svg>
